<?xml version="1.0" standalone="no"?>
<!DOCTYPE svg PUBLIC "-//W3C//DTD SVG 20010904//EN"
 "http://www.w3.org/TR/2001/REC-SVG-20010904/DTD/svg10.dtd">
<svg version="1.0" xmlns="http://www.w3.org/2000/svg"
 width="400.000000pt" height="400.000000pt" viewBox="0 0 400.000000 400.000000"
 preserveAspectRatio="xMidYMid meet">
<metadata>
Created by potrace 1.11, written by Peter Selinger 2001-2013
</metadata>
<g transform="translate(0.000000,400.000000) scale(0.100000,-0.100000)"
fill="#000000" stroke="none">
<path d="M0 2000 l0 -2000 2000 0 2000 0 0 2000 0 2000 -2000 0 -2000 0 0
-2000z m1297 1211 c159 -56 263 -121 263 -163 0 -6 8 -22 18 -36 24 -35 27
-100 7 -187 -45 -202 -75 -394 -90 -575 -3 -36 -8 -99 -12 -140 -7 -86 -7
-138 0 -195 2 -22 5 -58 6 -80 l2 -40 30 64 c91 194 346 927 434 1246 39 140
38 140 67 143 32 4 176 -38 256 -75 96 -44 131 -72 167 -138 41 -73 44 -112
16 -223 -21 -81 -21 -83 -45 -227 -16 -94 -23 -157 -41 -340 -13 -139 -14
-188 -4 -207 6 -11 7 -18 2 -15 -6 4 -5 -9 1 -29 l11 -34 33 72 c18 40 67 152
109 248 100 233 295 641 365 765 31 55 71 117 90 138 l33 38 65 -20 c73 -23
176 -95 199 -138 29 -56 31 -63 31 -100 0 -42 -13 -65 -114 -213 -37 -56 -90
-140 -117 -188 -67 -122 -269 -528 -274 -551 -2 -10 -11 -33 -19 -50 -9 -16
-16 -35 -16 -41 0 -5 -12 -34 -26 -63 -14 -28 -43 -95 -66 -147 -22 -52 -44
-100 -49 -106 -6 -7 -12 -20 -14 -30 -4 -18 -40 -109 -73 -184 -8 -19 -16 -39
-17 -45 -9 -36 -53 -138 -77 -183 -27 -46 -100 -122 -117 -120 -3 0 -8 -1 -11
-2 -20 -7 -78 -13 -122 -11 -20 1 -28 6 -28 19 0 14 -2 14 -9 3 -14 -21 -114
30 -140 72 -11 18 -36 47 -56 66 -20 19 -43 44 -51 56 -15 23 -29 147 -39 360
-4 72 -9 132 -11 134 -9 9 -40 -37 -77 -112 -20 -42 -37 -79 -37 -81 0 -3 -27
-68 -60 -146 -117 -276 -170 -340 -283 -340 -72 0 -195 18 -223 34 -12 6 -52
44 -89 84 -66 71 -67 73 -78 150 -15 101 -13 687 2 817 19 161 30 280 41 445
5 85 14 187 20 225 5 39 15 148 20 244 6 96 13 178 16 183 11 17 78 6 181 -31z"/>
</g>
</svg>
